<svg xmlns="http://www.w3.org/2000/svg" width="120" height="120" viewBox="0 0 120 120">
  <!-- Background circle -->
  <circle cx="60" cy="60" r="56" fill="#2b1055" stroke="#8b5cf6" stroke-width="2" />
  
  <!-- Cosmic elements -->
  <circle cx="60" cy="60" r="40" fill="none" stroke="#a78bfa" stroke-width="1" opacity="0.6" />
  <circle cx="60" cy="60" r="30" fill="none" stroke="#a78bfa" stroke-width="1" opacity="0.7" />
  <circle cx="60" cy="60" r="20" fill="none" stroke="#a78bfa" stroke-width="1" opacity="0.8" />
  
  <!-- Moon in the background -->
  <path d="M85,40 A30,30 0 0,1 40,85 A30,30 0 0,0 85,40 Z" fill="#c4b5fd" opacity="0.8" />
  
  <!-- Tarot card outline -->
  <rect x="45" y="40" width="30" height="45" rx="2" ry="2" fill="none" stroke="#e0e7ff" stroke-width="2" transform="rotate(-6, 60, 60)" />
  
  <!-- Star elements -->
  <path d="M60,30 L62,35 L67,35 L63,38 L65,43 L60,40 L55,43 L57,38 L53,35 L58,35 Z" fill="#e0e7ff" />
  <circle cx="30" cy="70" r="2" fill="#e0e7ff" />
  <circle cx="86" cy="55" r="2" fill="#e0e7ff" />
  <circle cx="75" cy="85" r="2" fill="#e0e7ff" />
  <circle cx="40" cy="35" r="1" fill="#e0e7ff" />
  <circle cx="82" cy="30" r="1" fill="#e0e7ff" />
  
  <!-- Text element (T logo text) -->
  <text x="60" y="70" font-family="'Cinzel', serif" font-size="24" font-weight="bold" text-anchor="middle" fill="#e0e7ff">T</text>
</svg> 